<?xml version="1.0" standalone="no"?>
<!DOCTYPE svg PUBLIC "-//W3C//DTD SVG 20010904//EN"
 "http://www.w3.org/TR/2001/REC-SVG-20010904/DTD/svg10.dtd">
<svg version="1.0" xmlns="http://www.w3.org/2000/svg"
 width="225.000000pt" height="225.000000pt" viewBox="0 0 225.000000 225.000000"
 preserveAspectRatio="xMidYMid meet">

<g transform="translate(0.000000,225.000000) scale(0.100000,-0.100000)"
fill="#000000" stroke="none">
<path d="M924 1662 c-81 -24 -145 -63 -183 -111 -37 -46 -84 -146 -78 -164 2
-7 54 -21 123 -33 l119 -20 25 45 c37 66 77 86 175 86 94 0 140 -16 161 -56
20 -40 29 -115 15 -123 -17 -11 -137 -42 -231 -61 -255 -50 -349 -102 -401
-222 -24 -55 -25 -171 -4 -234 45 -132 179 -206 354 -197 104 6 181 33 252 90
28 22 53 37 57 34 3 -4 13 -28 21 -54 l16 -47 138 -3 c109 -2 137 0 137 11 0
7 -4 17 -9 22 -4 6 -16 33 -26 60 -15 43 -19 102 -24 415 l-6 366 -26 49 c-30
59 -99 115 -173 140 -78 27 -349 31 -432 7z m363 -659 c-8 -121 -32 -163 -116
-205 -129 -66 -261 -8 -261 114 0 82 34 106 220 153 180 46 164 53 157 -62z"/>
</g>
</svg>
