<?xml version="1.0" standalone="no"?>
<!DOCTYPE svg PUBLIC "-//W3C//DTD SVG 20010904//EN"
 "http://www.w3.org/TR/2001/REC-SVG-20010904/DTD/svg10.dtd">
<svg version="1.0" xmlns="http://www.w3.org/2000/svg"
 width="1080.000000pt" height="1080.000000pt" viewBox="0 0 1080.000000 1080.000000"
 preserveAspectRatio="xMidYMid meet">

<g transform="translate(0.000000,1080.000000) scale(0.100000,-0.100000)"
fill="#000000" stroke="none">
<path d="M7224 8896 l-34 -34 0 -3130 c0 -2010 3 -3140 10 -3156 5 -14 24 -35
42 -46 33 -20 51 -20 1526 -20 1618 0 1528 -3 1566 52 14 20 16 333 16 3161
l0 3139 -34 34 -34 34 -1512 0 -1512 0 -34 -34z m2916 -3176 l0 -3000 -1370 0
-1370 0 0 3000 0 3000 1370 0 1370 0 0 -3000z"/>
<path d="M7593 7798 c-48 -23 -55 -57 -51 -271 l3 -199 30 -24 30 -24 1167 0
1167 0 26 23 c37 31 43 74 42 265 -2 183 -10 212 -63 232 -36 14 -2322 12
-2351 -2z m2197 -253 l0 -55 -1020 0 -1020 0 0 55 0 55 1020 0 1020 0 0 -55z"/>
<path d="M7604 7160 c-12 -4 -31 -21 -43 -36 -20 -25 -21 -38 -21 -225 l0
-199 29 -32 29 -33 1172 0 1172 0 29 33 29 32 0 195 c0 124 -4 203 -11 219
-27 59 28 56 -1221 55 -628 0 -1153 -4 -1164 -9z m2186 -260 l0 -60 -1020 0
-1020 0 0 60 0 60 1020 0 1020 0 0 -60z"/>
<path d="M8638 3781 c-106 -34 -195 -106 -251 -202 -68 -117 -76 -282 -19
-403 88 -189 279 -286 492 -251 106 17 235 108 293 207 69 117 77 288 20 410
-95 202 -327 305 -535 239z m203 -203 c52 -15 117 -73 140 -122 11 -24 19 -64
19 -96 0 -132 -98 -230 -230 -230 -167 0 -277 170 -209 320 27 60 54 88 114
116 55 26 107 30 166 12z"/>
<path d="M659 8466 c-86 -31 -148 -86 -190 -172 l-24 -49 -3 -2120 c-2 -1559
0 -2136 8 -2180 22 -112 79 -187 179 -234 l56 -26 1048 -3 1047 -2 0 -175 0
-175 -240 0 -239 0 -6 -32 c-3 -18 -4 -157 -3 -308 l3 -275 1393 -3 1392 -2 0
310 0 310 -240 0 -240 0 0 175 0 175 1048 2 1047 3 53 24 c67 30 145 114 166
179 15 43 16 254 14 2212 l-3 2165 -30 54 c-17 31 -51 71 -78 93 -94 74 182
68 -3136 68 -2415 -1 -2993 -3 -3022 -14z m6011 -211 c16 -8 34 -24 40 -34 7
-13 10 -704 10 -2138 0 -1942 -1 -2120 -16 -2142 -38 -54 151 -51 -3013 -51
-3208 0 -2992 -4 -3020 56 -8 18 -11 584 -11 2145 l0 2121 29 29 29 29 2962 0
c2621 0 2964 -2 2990 -15z m-2288 -4741 c2 -91 0 -170 -3 -175 -3 -5 -290 -8
-695 -7 l-689 3 -3 173 -2 172 694 0 695 0 3 -166z m488 -494 l0 -100 -1180 0
-1180 0 0 100 0 100 1180 0 1180 0 0 -100z"/>
<path d="M1070 8179 c-67 -13 -147 -74 -184 -139 l-31 -55 -3 -1885 c-3 -2137
-10 -1943 82 -2035 94 -94 -191 -85 2757 -85 l2598 0 55 21 c75 27 137 90 165
163 l21 57 0 1858 c0 1619 -2 1864 -15 1908 -19 63 -81 135 -149 171 l-51 27
-2600 1 c-1474 1 -2619 -2 -2645 -7z m5229 -235 l21 -27 0 -1839 0 -1839 -25
-24 -24 -25 -2581 0 -2581 0 -24 25 -25 24 0 1842 0 1843 22 23 21 23 2588 0
2588 0 20 -26z"/>
</g>
</svg>
