<?xml version="1.0" standalone="no"?>
<!DOCTYPE svg PUBLIC "-//W3C//DTD SVG 20010904//EN"
 "http://www.w3.org/TR/2001/REC-SVG-20010904/DTD/svg10.dtd">
<svg version="1.0" xmlns="http://www.w3.org/2000/svg"
 width="1200.000000pt" height="627.000000pt" viewBox="0 0 1200.000000 627.000000"
 preserveAspectRatio="xMidYMid meet">

<g transform="translate(0.000000,627.000000) scale(0.100000,-0.100000)"
fill="#000000" stroke="none">
<path d="M2206 4555 c-21 -7 -56 -31 -77 -51 -37 -36 -60 -77 -163 -294 -89
-189 -155 -297 -299 -490 -112 -150 -306 -351 -432 -446 l-80 -61 3 -44 c4
-64 40 -129 90 -164 36 -25 55 -30 117 -33 88 -5 144 11 240 69 37 22 69 38
72 35 3 -2 -4 -45 -16 -95 -55 -240 -75 -390 -75 -566 1 -258 42 -407 150
-545 114 -146 258 -209 446 -197 46 3 92 7 103 10 120 29 188 63 315 156 115
84 259 251 407 471 78 116 258 456 350 660 46 101 88 189 93 194 7 7 10 -35
10 -119 0 -251 37 -486 96 -610 61 -130 179 -231 303 -259 87 -20 228 -21 318
-2 137 29 283 114 378 219 111 122 174 301 147 418 -21 90 -73 138 -111 101
-97 -95 -219 -193 -295 -237 -63 -37 -161 -42 -196 -10 -66 60 -79 147 -86
610 -2 187 -9 391 -15 453 -16 191 -70 320 -158 379 -96 65 -235 51 -305 -31
-28 -31 -91 -150 -282 -526 -146 -290 -258 -501 -316 -600 -153 -258 -246
-399 -331 -502 -21 -27 -37 -48 -34 -48 7 0 -50 -67 -93 -109 -93 -91 -184
-70 -227 53 -26 75 -24 310 6 476 27 159 141 649 192 834 65 230 87 322 100
407 15 102 7 289 -15 350 -22 61 -71 118 -120 140 -49 22 -153 24 -210 4z"/>
<path d="M7170 3634 l0 -186 -32 6 c-83 15 -191 18 -250 7 -181 -36 -305 -157
-343 -338 -39 -181 8 -378 113 -474 122 -113 336 -137 499 -57 l62 30 27 -31
c25 -30 29 -31 105 -31 l79 0 0 630 0 630 -130 0 -130 0 0 -186z m-32 -408
l32 -17 -2 -197 -3 -197 -45 -23 c-63 -32 -170 -28 -224 8 -73 50 -109 176
-80 287 30 116 99 167 219 160 39 -2 84 -11 103 -21z"/>
<path d="M5374 3736 c-3 -8 -4 -194 -1 -413 3 -339 6 -407 21 -457 52 -176
142 -266 306 -307 34 -9 108 -14 195 -13 210 1 317 36 408 133 55 58 79 107
103 207 14 58 17 131 18 464 l1 395 -140 0 -140 0 3 -325 c5 -442 -9 -517
-100 -577 -39 -26 -49 -28 -148 -28 -100 0 -109 2 -149 28 -31 20 -50 45 -69
85 l-27 57 -3 383 -3 382 -135 0 c-108 0 -136 -3 -140 -14z"/>
<path d="M7864 3456 c-148 -34 -246 -122 -293 -263 -77 -231 7 -501 184 -592
133 -68 396 -69 510 -2 28 16 31 25 47 116 10 54 16 100 15 102 -2 1 -32 -9
-67 -24 -49 -20 -88 -27 -160 -31 -110 -5 -165 7 -211 45 -34 29 -68 94 -69
130 l0 23 283 2 282 3 -3 65 c-11 206 -97 357 -236 409 -74 27 -201 35 -282
17z m185 -196 c19 -5 45 -20 59 -32 29 -28 62 -90 62 -118 0 -19 -6 -20 -176
-20 l-176 0 6 32 c10 52 53 108 99 129 47 21 77 23 126 9z"/>
<path d="M8893 3452 c-28 -10 -70 -31 -92 -45 -22 -15 -45 -27 -49 -27 -5 0
-20 16 -33 35 l-24 35 -97 0 -98 0 0 -445 0 -446 133 3 132 3 5 304 5 304 38
20 c82 42 179 31 219 -26 22 -31 23 -39 26 -314 l3 -283 135 0 136 0 -3 303
-4 302 40 19 c56 28 131 32 175 9 66 -34 70 -54 70 -360 l0 -273 136 0 135 0
-3 333 c-4 386 -7 397 -92 483 -43 42 -62 54 -118 69 -125 33 -256 6 -360 -76
l-39 -32 -29 35 c-62 75 -235 110 -347 70z"/>
<path d="M9910 3445 c0 -5 152 -375 271 -658 43 -104 79 -192 79 -196 0 -4
-29 -78 -65 -164 l-64 -157 132 0 133 0 144 363 c79 199 183 461 232 581 48
120 88 223 88 227 0 5 -58 9 -130 9 l-129 0 -92 -282 c-50 -156 -94 -287 -96
-292 -10 -16 -13 -8 -200 532 l-15 42 -144 0 c-79 0 -144 -2 -144 -5z"/>
</g>
</svg>
